<svg xmlns="http://www.w3.org/2000/svg" viewBox="0 0 628.08 341.19"><defs><style>.cls-1{fill:#fff;}.cls-2{fill:#231f20;}.cls-3{fill:#f89b6c;}.cls-4{fill:#8facda;}.cls-5{fill:#fcd2c9;}</style></defs><g id="Layer_2" data-name="Layer 2"><g id="Layer_7" data-name="Layer 7"><path class="cls-1" d="M0,257.57C0,115.32,140.6,0,314,0s314,115.32,314,257.57"/><rect class="cls-1" y="257.57" width="628.08" height="83.63"/><path class="cls-2" d="M148.57,90.48l2.26,5.39a25.56,25.56,0,0,0,1.75,3.86c.47.69.95,1,1.69.52s.95-1.39.77-3.54l.57,0c.19,2.12,0,4.29-2.16,5.79-2.62,1.76-4.31.71-5.19-.61a20.32,20.32,0,0,1-1.67-3.4l-2.21-5.16-1.61,1.09-.2-.45,1.61-1.09-1.13-2.59,3.28-3.44.45-.3L148.37,90l2.35-1.59.2.45Z"/><path class="cls-2" d="M155.41,95c-2.5-4.13-1.94-8.54,2.49-11.22,3.07-1.86,5.49-1.62,7.25,1.29,2.94,4.85,1.67,9-2.35,11.4C159.61,98.35,157.15,97.83,155.41,95ZM160,85.27c-.63-1-1.25-1.45-1.92-1-1.44.87-.75,2.89.86,7A27.33,27.33,0,0,0,160.71,95c.64,1.06,1.21,1.38,2,.92,1.29-.79.87-2.27-1-7A27.62,27.62,0,0,0,160,85.27Z"/><path class="cls-2" d="M174.37,94.44c.3,1.09,1,1.37,2.13.8,1.84-1,2.16-2.79,1-7.49-.19-.69-.28-1.1-.53-2h-.12a4.31,4.31,0,0,1-2.58,4c-2.46,1.3-4.48.66-5.93-2.08-1.9-3.61-2.72-8.49,1.63-10.79a3.14,3.14,0,0,1,3.71.27l-.41-1.59a31.29,31.29,0,0,0,4.26-2.52c.78,2.7,1.13,4.1,3.49,10.89,1.91,5.46.15,9.51-4.15,11.78-2.1,1.11-4.69,1.41-5.71-.52a2.44,2.44,0,0,1,1-3.51c1.19-.64,2.66-.52,3.38,1.6Zm1.67-10a18.75,18.75,0,0,0-1.82-5.57c-.82-1.56-1.85-2.23-2.69-1.79s-.9,1.58-.5,3.38a26,26,0,0,0,2.26,6.35c.47.88,1.12,1.66,2,1.2C176,87.68,176.36,86.55,176,84.49Z"/><path class="cls-2" d="M191.61,69.79c1.1,2.41-1.19,4.33-3.33,5.7a17.32,17.32,0,0,1-1.85,1c1.25,3.62,2.62,4.8,4.34,4,1.2-.56,2.13-2,1.76-5.1l.56-.08c.48,3.44-.73,5.51-3.68,6.87-3.11,1.44-5.72.62-7-2.27-2.32-5-.47-9,3.87-11C189,67.63,190.77,68,191.61,69.79Zm-5.38-.31c-1.33.61-1,3.39,0,6.52,1.64-.84,2.78-2.35,1.39-5.37C187.23,69.73,186.82,69.21,186.23,69.48Z"/><path class="cls-2" d="M198.46,64.52l1.12,5.72a26.79,26.79,0,0,0,.94,4.14c.32.77.73,1.19,1.55.85s1.21-1.17,1.47-3.31l.56.09c-.24,2.11-.81,4.21-3.28,5.23-2.92,1.2-4.36-.17-5-1.64a21.05,21.05,0,0,1-1-3.67l-1.12-5.5-1.8.74-.11-.48,1.8-.74-.58-2.76,3.9-2.72.5-.2.85,3.77L201,63l.11.48Z"/><path class="cls-2" d="M212.82,69.24c-.59-1.68-.65-5.87-.71-6.59-.1-1.4-.18-2.52-1.09-2.19-.59.21-1.21,1.34-1.38,3.61s.17,4.58,1.27,8.8a53.28,53.28,0,0,0-5,2.09l-.62-5.11L202.39,55l-1.78.64-.09-.49,6.69-2.38,1.7,11.89H209c.2-2.59.62-5.2,3.59-6.26,2-.7,3.26,0,3.85,1.64a9.6,9.6,0,0,1,.42,2.29l.48,4.67a16.68,16.68,0,0,0,.32,2c.18.48.48.52.78.41.48-.17.88-.66,1.21-2.09l.49.11a4.17,4.17,0,0,1-3,3.6C215.28,71.72,213.6,71.43,212.82,69.24Z"/><path class="cls-2" d="M230.81,56c.76,2.54-1.79,4.11-4.1,5.17a15.44,15.44,0,0,1-2,.73c.73,3.75,1.92,5.12,3.73,4.58,1.27-.38,2.4-1.7,2.46-4.79h.57c0,3.47-1.51,5.35-4.61,6.27-3.29,1-5.75-.2-6.66-3.25-1.58-5.31.82-9,5.4-10.34C228.54,53.5,230.24,54.1,230.81,56Zm-5.28-1.07c-1.4.41-1.44,3.21-.89,6.46,1.73-.6,3.08-1.93,2.14-5.12C226.49,55.33,226.15,54.75,225.53,54.94Z"/><path class="cls-2" d="M234.12,60.06,233.37,53l-1.78.44,0-.49,6.48-1.6.09,5.21h.13c.27-2.2,1.36-5.87,4.3-6.59a2.27,2.27,0,0,1,3,1.73,2.42,2.42,0,0,1-1.86,3.16,4.15,4.15,0,0,1-1.92,0l-.69-2.14c-1.41.4-2.32,2.66-2.27,5.68a27.63,27.63,0,0,0,.63,5.71,44.41,44.41,0,0,0-5.19,1.64Z"/><path class="cls-2" d="M267,58c2.37-.39,4.73-4.51,4.1-8.26-.19-1.12-.86-2-1.71-1.88L268.78,49a2,2,0,0,1-1.9-1.57,1.94,1.94,0,0,1,1.74-2.37c2-.34,2.86,1.41,3.08,2.74.71,4.26-.5,10.43-6.17,11.38a5.47,5.47,0,0,1-4-.65,7.25,7.25,0,0,1-4,2c-2.24.37-4.37-.61-4.39-4,0-2.35.08-3.92.2-6.19.06-.8.12-1.55-.38-1.46s-1.06.72-1.75,2l-.42-.26c1.19-2.39,2.46-3,4.11-3.26,2.26-.37,3.73.75,3.68,3.06-.07,2.88-.21,4-.27,6.75,0,1.43.24,2.12,1.18,2a2.82,2.82,0,0,0,1.66-1,6.78,6.78,0,0,1-.28-2.33c.05-2,.3-6.05.21-8.91a43.32,43.32,0,0,0,5-1.24c-.27,4.12-.44,8.69-.39,11.12C265.72,57.69,265.93,58.12,267,58Z"/><path class="cls-2" d="M282.24,54.55a4.26,4.26,0,0,1-3.68,2.82c-2,.23-3.53-.46-3.79-2.72a18.52,18.52,0,0,1,.05-2.64l.58-7-2.12.25,0-.5,7.11-.82c-.47,5.33-.66,7.72-.79,9.64a14.07,14.07,0,0,0-.05,1.9c.06.49.34.62.64.58.48-.05,1-.6,1.59-1.76Zm-7.41-14c-.21-1.82,1.28-3.08,3.16-3.3,1.52-.17,2.54.41,2.7,1.76.21,1.82-1.31,3.05-3.13,3.27S274.94,41.5,274.83,40.59Z"/><path class="cls-2" d="M289.7,43.61l-.65,5.8a25.8,25.8,0,0,0-.35,4.23c.07.83.33,1.35,1.22,1.28s1.5-.75,2.4-2.72l.51.25c-.87,1.95-2.05,3.78-4.71,4-3.15.26-4.1-1.47-4.24-3.06a21.34,21.34,0,0,1,.2-3.78l.59-5.58-1.93.16,0-.49,1.93-.16.28-2.81,4.55-1.41.53,0-.33,3.85,2.83-.23,0,.49Z"/><path class="cls-2" d="M302,52.42c-.07-1.78,1.12-5.8,1.28-6.51.32-1.37.58-2.46-.39-2.42-.62,0-1.56.93-2.39,3s-1.21,4.43-1.41,8.78a49.46,49.46,0,0,0-5.39.52l.94-5.07,1.62-15-1.89.07.06-.49,7.1-.28-1.91,11.86.11,0c1-2.42,2.13-4.79,5.29-4.91,2.1-.09,3.12.93,3.19,2.71a10.16,10.16,0,0,1-.29,2.31l-.93,4.6a14.82,14.82,0,0,0-.27,2c0,.52.3.64.62.63.51,0,1-.37,1.77-1.64l.44.25a4.18,4.18,0,0,1-3.89,2.56C303.6,55.51,302.08,54.74,302,52.42Z"/><path class="cls-2" d="M322.82,42.82l-1.24,5.7a26.82,26.82,0,0,0-.78,4.17c0,.84.19,1.38,1.09,1.4s1.57-.59,2.66-2.46l.48.3c-1.06,1.85-2.41,3.55-5.09,3.5-3.16-.06-3.93-1.88-3.9-3.48a21.65,21.65,0,0,1,.58-3.74l1.16-5.48-1.95,0,.09-.49,1.95,0,.56-2.77,4.66-.94h.54l-.72,3.79,2.84.06-.09.48Z"/><path class="cls-2" d="M334.17,52.83c.11-1.78,1.71-5.66,1.94-6.35.46-1.32.83-2.38-.14-2.44-.62,0-1.65.76-2.69,2.78s-1.65,4.28-2.3,8.6a48.93,48.93,0,0,0-5.41,0L327,50.44l3.14-14.77-1.89-.12.11-.48,7.09.45-3.1,11.6.1.06c1.2-2.31,2.61-4.55,5.76-4.35,2.1.13,3,1.24,2.9,3a9.72,9.72,0,0,1-.52,2.27l-1.39,4.48a13.19,13.19,0,0,0-.47,1.92c0,.51.23.66.55.68.51,0,1.07-.25,1.93-1.44l.42.29a4.2,4.2,0,0,1-4.14,2.15C335.46,56.07,334,55.15,334.17,52.83Z"/><path class="cls-2" d="M355.87,47.66c-.29,2.63-3.25,3.09-5.78,3.17a17.39,17.39,0,0,1-2.11-.1c-.8,3.74-.23,5.46,1.65,5.67,1.32.15,2.87-.63,4.13-3.45l.52.22c-1.36,3.19-3.47,4.34-6.69,4-3.41-.38-5.22-2.42-4.87-5.59.61-5.5,4.25-8,9-7.43C354.76,44.47,356.09,45.68,355.87,47.66Zm-4.44-3c-1.45-.16-2.58,2.4-3.34,5.6,1.83.13,3.59-.57,4-3.88C352.16,45.35,352.07,44.69,351.43,44.62Z"/><path class="cls-2" d="M363.76,56.91a4.27,4.27,0,0,1-4.28,1.77c-2-.3-3.29-1.36-3-3.6a18.61,18.61,0,0,1,.73-2.54l2.37-6.61-2.11-.31.15-.47,7.08,1.05c-1.83,5-2.63,7.27-3.25,9.09a14.41,14.41,0,0,0-.55,1.83c-.07.48.17.68.47.73.48.07,1.11-.33,2-1.29Zm-3.54-15.39c.27-1.82,2-2.65,3.9-2.37,1.52.22,2.35,1.05,2.16,2.39-.27,1.81-2.06,2.62-3.87,2.35S360.09,42.42,360.22,41.52Z"/><path class="cls-2" d="M366.52,54.09l2.26-6.75L367,47l.17-.46,6.55,1.24-2.08,4.77.13.05c1.15-1.9,3.67-4.77,6.65-4.21a2.28,2.28,0,0,1,2,2.82,2.42,2.42,0,0,1-3,2.1,4.06,4.06,0,0,1-1.74-.79l.25-2.24c-1.44-.21-3.21,1.46-4.42,4.23A28.08,28.08,0,0,0,369.7,60a44.31,44.31,0,0,0-5.4-.66Z"/><path class="cls-2" d="M388.66,51.49,386.75,51l.19-.45,1.89.47.44-1c1.8-4,4.84-6,9.06-4.93,1.89.46,3.92,1.91,3.38,4.11a2.5,2.5,0,0,1-3.06,2,1.9,1.9,0,0,1-1.6-2.32,2.64,2.64,0,0,1,.54-1l1.21.13c1.08-1.43.63-2.18-.21-2.39-1.47-.36-2.34,1-4,4.93l-.72,1.69L397,53l-.22.45-3.09-.76L388.57,64c-1.84,4-4.72,6-9.17,4.91-1.66-.41-3.81-1.69-3.26-3.92a2.69,2.69,0,0,1,3.32-2.07c1.65.4,2,2,1,3.37l-1.14-.14c-.94,1-.84,1.94.11,2.17,1.46.36,2.35-1.31,4-4.86Z"/><path class="cls-2" d="M408,67.59a4.08,4.08,0,0,1-4.12,1.18c-2.57-.76-3.14-2.33-2.11-4.31l-.12-.06c-1.3,1.81-3,2.82-5.28,2.16-3-.89-3.66-3-2.84-5.74,1.4-4.76,4.63-7.69,8.82-6.46,1.92.57,2.3,1.47,2.4,2.57l.77-1.27a32.27,32.27,0,0,0,4.8,1.19c-1.59,3-3.15,5.8-4.82,9.39a7.43,7.43,0,0,0-.38.9c-.2.67.07.92.43,1s1,0,2.13-.92Zm-6.58-3.85A21.53,21.53,0,0,0,404.14,58c.46-1.55-.09-2.36-.81-2.57s-1.54.33-2.59,2a29.61,29.61,0,0,0-3,6.4c-.26.89-.45,1.93.56,2.22C399.09,66.25,400.24,65.6,401.46,63.74Z"/><path class="cls-2" d="M420.49,64.29c1-1.48,1.33-2.1.62-2.36s-1.62.09-3.33,1.76-3,3.67-4.79,7.66a53.28,53.28,0,0,0-5.13-1.62l2.82-4.31,3.66-6.67-1.74-.65.22-.43,6.4,2.38-2.55,3.83.06,0c2.08-2.08,4-3.61,6.91-2.53,1.64.62,2,1.7,1.53,2.93a6.72,6.72,0,0,1-1.08,1.74l.09.06c1.29-1.28,3.4-3.26,6.39-2.15a2.5,2.5,0,0,1,1.75,3.36,10.5,10.5,0,0,1-1.09,2.07l-3,4.32a11,11,0,0,0-.9,1.48c-.19.5.08.72.43.85s1.12,0,2.14-.87l.34.41c-1.53,1.16-2.74,1.54-4.58.86s-3-2-2.21-4.2a28.21,28.21,0,0,1,3.73-5.46c.87-1,1.71-2,.8-2.3-.56-.21-1.59.31-2.89,1.49-1.87,1.7-3.54,4.39-5.31,7.91a43.81,43.81,0,0,0-4.9-1.54C416.7,69.59,418.5,67.15,420.49,64.29Z"/><path class="cls-2" d="M438.33,79.39a4.24,4.24,0,0,1-4.59.57c-1.88-.82-2.81-2.18-1.9-4.26a18.6,18.6,0,0,1,1.38-2.25l4-5.74-1.95-.86.27-.42,6.54,2.89c-3.09,4.35-4.46,6.32-5.54,7.91a14.61,14.61,0,0,0-1,1.62.54.54,0,0,0,.26.82c.44.19,1.16,0,2.26-.72ZM439,63.61c.74-1.68,2.65-2,4.38-1.26,1.41.62,2,1.65,1.45,2.88-.74,1.68-2.67,2-4.35,1.24S438.63,64.45,439,63.61Z"/><path class="cls-2" d="M446.69,83.41c-1.88,1-3,1.19-4.57.41-2.24-1.07-2.89-2.58-1.89-4.68.43-.9.91-1.63,3.3-4.79l6.65-8.88-1.73-.83.29-.4,6.23,3L444.88,81a12.87,12.87,0,0,0-1.08,1.55c-.21.44-.18.76.28,1s1.08.13,2.36-.61Z"/><path class="cls-2" d="M454.82,87.62a4.26,4.26,0,0,1-4.62.27c-1.82-1-2.66-2.37-1.61-4.38a17.72,17.72,0,0,1,1.53-2.16l4.41-5.46-1.89-1,.3-.4,6.34,3.32c-3.39,4.15-4.88,6-6.07,7.53a13.37,13.37,0,0,0-1.12,1.55.55.55,0,0,0,.2.83c.43.23,1.16.06,2.31-.56Zm1.73-15.7c.85-1.63,2.79-1.84,4.46-1,1.37.71,1.88,1.77,1.25,3-.85,1.63-2.8,1.8-4.42.94S456.12,72.73,456.55,71.92Z"/><path class="cls-2" d="M470.64,87.49c-1.33,2.29-4.22,1.52-6.57.57a15.76,15.76,0,0,1-1.89-.94c-2.23,3.11-2.4,4.91-.77,5.86,1.15.66,2.88.57,5.18-1.5l.38.41c-2.53,2.38-4.92,2.58-7.73,1-3-1.72-3.8-4.32-2.21-7.08,2.78-4.79,7.09-5.57,11.23-3.18C470.9,84.12,471.64,85.76,470.64,87.49Zm-2.84-4.58c-1.27-.73-3.33,1.17-5.32,3.8,1.63.84,3.53.91,5.19-2C468.17,83.88,468.36,83.24,467.8,82.91Z"/><path class="cls-2" d="M473.17,98.19c.81-1.25,0-2.2-1.17-3.75-1-1.31-1.91-3-.7-4.85,1.62-2.5,4.82-2.19,7.95-.17,1.84,1.19,3.87,2.92,2.6,4.89a2,2,0,0,1-3,.49c-.8-.52-1.28-1.41-.84-2.09a2,2,0,0,1,1-.84l.72.46a1.55,1.55,0,0,0,.49-.45c.34-.52,0-1.12-1-1.78-1.7-1.1-2.87-.82-3.38,0-.72,1.11-.13,1.94,1,3.5s2.44,3.24,1.21,5.15c-1.79,2.76-5.24,2.49-8.62.31-2.54-1.64-3.73-3.53-2.64-5.21a2.1,2.1,0,0,1,3.16-.63,1.62,1.62,0,0,1,.59,2.38,2.81,2.81,0,0,1-.81.8l-.9-.59a1.3,1.3,0,0,0-.37.37c-.38.59-.16,1.44,1.11,2.26C471.56,99.69,472.69,98.94,473.17,98.19Z"/><path class="cls-2" d="M213.51,126.68c12.56,0,20.08,2.78,20.08,11.51,0,6.16-4.88,12.1-16.77,13.46l-.07.15c10,.6,15.11,4.13,15.11,10.37,0,13.54-13.91,17.15-27.07,17.15H184.64l.37-1.43h4l8.27-49.78h-4.51l.22-1.43Zm-10.75,51.21h1.58c7,0,12.26-6.32,12.26-15.87,0-6.54-2.33-9.32-8-9.32h-1.5Zm4.59-26.62h.22c6.17,0,11.51-3.83,11.51-14.74,0-5.49-2.48-8.42-7.45-8.42H211Z"/><path class="cls-2" d="M270.74,151.27c0,7.37-8,9.55-15,10.53a45.91,45.91,0,0,1-5.86.37c-1.06,10.61,1,15.19,6.31,15.19,3.69,0,7.75-2.63,10.38-10.82L268,167c-2.79,9.25-8.28,13.08-17.3,13.08-9.55,0-15.19-5.11-15.19-14,0-15.42,9.32-23.32,22.63-23.32C266.68,142.77,270.74,145.71,270.74,151.27Zm-13.23-7.07c-4.06,0-6.39,7.45-7.52,16.55,5.11-.23,9.77-2.71,9.77-12C259.76,146,259.31,144.2,257.51,144.2Z"/><path class="cls-2" d="M295.71,173.53c-3.46,4.89-6,6.54-11,6.54-6.92,0-10.38-3-10.38-9.47,0-2.79.31-5.19,2.49-16l6-30.31h-5.34l.23-1.35H297l-8.72,46.77a34.06,34.06,0,0,0-.83,5.19c0,1.36.45,2.11,1.88,2.11,1.2,0,2.86-1,5.19-4.36Z"/><path class="cls-2" d="M322.33,173.53c-3.46,4.89-6,6.54-11,6.54-6.91,0-10.38-3-10.38-9.47,0-2.79.31-5.19,2.49-16l6-30.31h-5.34l.23-1.35h19.25l-8.72,46.77a34.06,34.06,0,0,0-.83,5.19c0,1.36.45,2.11,1.88,2.11,1.2,0,2.86-1,5.19-4.36Z"/><path class="cls-2" d="M369.41,173.68c-2.71,4.44-5.94,6.39-10.08,6.39-7.44,0-10.23-3.76-9-9.85l-.38-.07c-2,5.86-5.86,9.92-12.41,9.92-8.72,0-12.1-5-12.1-13.08,0-13.84,6.31-24.22,18.5-24.22,5.56,0,7.29,2.11,8.42,5l1.05-4c3.61.08,10.83,0,13.76-.6-1.88,9.25-3.83,18-5.49,28.88a21.08,21.08,0,0,0-.3,2.7c0,2,.9,2.41,2,2.41s2.78-.75,5-4.14Zm-20.61-5.11a60,60,0,0,0,2.64-17.52c0-4.52-2.11-6.25-4.22-6.25s-3.83,2.11-5.34,7.37a82.57,82.57,0,0,0-3,19.48c0,2.56.3,5.49,3.23,5.49C344.44,177.14,347,174.51,348.8,168.57Z"/><path class="cls-2" d="M416.88,179.07c-.62,9.92-5.9,19.28-22,19.28-11.78,0-18.72-4.22-18.72-12.09,0-7.57,7.87-11.66,17.79-12.46v-.25c-7.62-.25-13-3.29-13-8.56,0-7.69,7.88-11.41,18.73-11.41,6.08,0,12.71,1.74,12.71,8.37,0,5-3.22,6.64-6,6.64-5.34,0-5.4-5.27-4-7.51h3.28c2.11-4.21,0-6.26-3.47-6.26-3.72,0-7.81,2.67-7.81,10.79,0,2.48.43,6,1.67,7.63a10.83,10.83,0,0,1,4.1-1.18c1,0,2.29.37,2.29,1.86s-1.3,2-2.6,2a8.12,8.12,0,0,1-4.16-1.67c-3,2.54-5.08,5.4-5.08,11.78,0,4.9,2.23,9.67,9.55,9.67,9.05,0,14.69-8,15-16.43l-8.49,1.06c-1.8.25-2,.87-2.36,2.79l-.93-.06c.25-8.44,2.17-12,6-12.72,2.35-.37,12.15-1.55,14.75-2.1,1.12-.25,1.68-.75,1.92-2.79l1,.06c.31,6.26-1.12,11.9-5.46,12.65Z"/><path class="cls-2" d="M247.71,210.89l-2.18-14.82H241l.22-1.43H264l-.22,1.43h-4.29l6.54,40.23,16.32-40.23h-5.26l.22-1.43h11.58l-.3,1.43h-4l-20.53,51.21H254l-5.57-32.78-14.51,32.78h-9.63l-8.05-51.21h-4.13l.15-1.43H234l-.15,1.43h-3.61l6.69,39.41Z"/><path class="cls-2" d="M306.07,241.42c-2.71,4.21-5.49,6.61-11.05,6.61-5.72,0-9.63-2.4-9.63-8.72a50.35,50.35,0,0,1,1-7.29l3.83-19.18h-5.94l.23-1.35h19.93c-3,14.59-4.29,21.13-5.27,26.39a40.29,40.29,0,0,0-.75,5.27c0,1.35.75,1.8,1.58,1.8,1.35,0,2.93-1.35,5-4.36Zm-16-41c0-5.11,4.51-8.12,9.78-8.12,4.28,0,6.92,2,6.92,5.72,0,5.11-4.59,8-9.7,8C291.56,206.07,290.05,203,290.05,200.43Z"/><path class="cls-2" d="M332.17,241.49c-3.46,4.89-6,6.54-11,6.54-6.92,0-10.38-3-10.38-9.47,0-2.78.3-5.19,2.48-16l6-30.3H314l.22-1.36h19.25l-8.72,46.78a33.87,33.87,0,0,0-.83,5.19c0,1.35.45,2.1,1.88,2.1,1.21,0,2.86-1,5.19-4.36Z"/><path class="cls-2" d="M358.79,241.49c-3.46,4.89-6,6.54-11,6.54-6.92,0-10.38-3-10.38-9.47,0-2.78.3-5.19,2.48-16l6-30.3h-5.34l.22-1.36h19.26l-8.73,46.78a35.15,35.15,0,0,0-.83,5.19c0,1.35.46,2.1,1.88,2.1,1.21,0,2.86-1,5.19-4.36Z"/><path class="cls-2" d="M396.91,219.23c0,7.37-8,9.55-15,10.53a46.18,46.18,0,0,1-5.86.38c-1.05,10.6,1.05,15.19,6.32,15.19,3.68,0,7.74-2.63,10.37-10.83l1.51.45c-2.79,9.25-8.28,13.08-17.3,13.08-9.55,0-15.19-5.11-15.19-14,0-15.42,9.32-23.31,22.64-23.31C392.85,210.74,396.91,213.67,396.91,219.23Zm-13.23-7.07c-4.06,0-6.39,7.45-7.52,16.55,5.11-.23,9.77-2.71,9.77-12C385.93,214,385.48,212.16,383.68,212.16Z"/><path class="cls-2" d="M426.69,221.34c1.28-4.89,1.43-6.77-.67-6.77-1.66,0-4.14,1.8-7,7.82-2.7,5.72-4.21,12.48-5,24.67-2.33-.08-12.85.3-15,.75l3.16-14,3.08-21h-5.19l.15-1.35h19L416.32,224l.22.08c3.39-7.45,6.92-13.31,15.57-13.31,4.89,0,6.84,2.48,6.84,6.16a18.2,18.2,0,0,1-1.13,5.57l.3.07c2.11-4.59,5.72-11.8,14.59-11.8,5,0,7.75,2.85,7.82,7.06a27.65,27.65,0,0,1-.82,6.47l-3.54,14.14a30.61,30.61,0,0,0-.9,4.74c0,1.5.9,1.8,2,1.8s2.85-1.2,4.73-4.36l1.28.75c-2.86,4.51-5.64,6.69-11.13,6.69-5.71,0-9.85-2.4-9.85-8.79,0-5,3.84-16.4,4.44-17.9,1.28-3.54,2.55-6.77-.15-6.77-1.66,0-3.84,2.33-6.09,6.69-3.24,6.24-5,14.89-6.17,25.8-2.18-.08-12.41.3-14.29.75C422,238.86,424.29,230.74,426.69,221.34Z"/><path class="cls-2" d="M89.59,290v12.37h1.52v.48h-8v-.48h1.48V290.51H83V290Zm-2.43-6.88c1.68,0,2.68.84,2.68,2.48a2.39,2.39,0,0,1-2.73,2.54c-2.19,0-2.7-1.38-2.7-2.51C84.41,284.33,85.14,283.14,87.16,283.14Z"/><path class="cls-2" d="M98.21,290v2.49a3.72,3.72,0,0,1,4-2.76c2.51,0,4.18,1.25,4.18,4.51v8.13h1.51v.48h-7.64v-.48h1.11v-8.78c0-2.29-.32-2.56-1-2.56-1.13,0-2.18,1.7-2.18,3.89v7.45h1.16v.48H91.7v-.48h1.49V290.51H91.7V290Z"/><path class="cls-2" d="M106.66,290h8.07v.49H113l3.24,9,2.91-9h-1.81V290H121v.49h-1.19l-4,12.36h-3.08l-5-12.36h-1.11Z"/><path class="cls-2" d="M127.8,290v12.37h1.51v.48h-8v-.48h1.49V290.51h-1.59V290Zm-2.43-6.88c1.67,0,2.67.84,2.67,2.48a2.38,2.38,0,0,1-2.72,2.54c-2.19,0-2.7-1.38-2.7-2.51C122.62,284.33,123.34,283.14,125.37,283.14Z"/><path class="cls-2" d="M131.2,290.51h-1.48V290h1.48v-3.48l5-1.24V290h3.51v.49h-3.51v9.1c0,1.59.24,2.45,1.19,2.45,1.3,0,2.11-1.19,2.35-3l.46,0c-.25,2.11-1.14,4.05-4.43,4.05-2.67,0-4.59-.78-4.59-4.13Z"/><path class="cls-2" d="M147.56,289.75c4.24,0,6.05,2.14,5.89,6.16h-7.62v1c0,3.19.57,5.35,3.19,5.35,2,0,3.35-1.27,3.94-3.35l.49.08c-.63,2.32-2,4.1-5.86,4.1-4.81,0-7-2.75-7-6.67C140.62,291.81,143.81,289.75,147.56,289.75Zm1.08,5.62v-1.32c0-2.84-.21-3.78-1.32-3.78-.95,0-1.46.91-1.46,3.78v1.32Z"/><path class="cls-2" d="M159.15,290H167v.49h-1.45l2.94,9,3.13-9h-1.81V290h3.81v.49h-1.35l-5.05,14.55c-1.22,3.48-2.62,4.56-4.75,4.56s-3.38-1-3.38-2.73a2,2,0,0,1,2.16-2.18c1.38,0,2.24.59,2.24,1.86a3.54,3.54,0,0,1-.16,1h-.94c-.27.81-.11,1.43.67,1.43,1.51,0,2.59-1.51,3.62-4.42l.59-1.68h-2.37l-4.62-12.36h-1.1Z"/><path class="cls-2" d="M180.18,289.75c4.53,0,6.69,2.14,6.69,6.51s-2.05,6.88-6.85,6.88c-4.54,0-6.83-2.43-6.83-6.64C173.19,292.08,175.83,289.75,180.18,289.75Zm1.51,5.51c0-2.92-.08-5-1.59-5s-1.73,2.1-1.73,5.16v2.1c0,3.13,0,5.16,1.7,5.16s1.62-1.6,1.62-5.11Z"/><path class="cls-2" d="M197.27,302.87l-.3-2c-.51,1.27-1.38,2.24-3.81,2.24S189,301.9,189,298.63v-8.12h-1.51V290H194v9.26c0,2.3.32,2.65,1,2.65,1.08,0,1.92-1.11,1.92-3.16v-8.26h-1.25V290h6.27v12.37h1.48v.48Z"/><path class="cls-2" d="M210.17,290.51h-1.48V290h1.48v-3.48l5-1.24V290h3.5v.49h-3.5v9.1c0,1.59.24,2.45,1.18,2.45,1.3,0,2.11-1.19,2.35-3l.46,0c-.24,2.11-1.13,4.05-4.43,4.05-2.67,0-4.59-.78-4.59-4.13Z"/><path class="cls-2" d="M226.67,289.75c4.53,0,6.69,2.14,6.69,6.51s-2.05,6.88-6.85,6.88c-4.54,0-6.83-2.43-6.83-6.64C219.68,292.08,222.32,289.75,226.67,289.75Zm1.51,5.51c0-2.92-.08-5-1.59-5s-1.73,2.1-1.73,5.16v2.1c0,3.13.06,5.16,1.7,5.16s1.62-1.6,1.62-5.11Z"/><path class="cls-2" d="M244.33,295.83v1.4c0,3.46.62,5,2.72,5a4,4,0,0,0,3.81-3.53l.49.05c-.36,1.68-1.25,4.4-5.75,4.4-4.16,0-6.48-2.32-6.48-6.53,0-4.53,2.75-6.86,7.21-6.86,3.29,0,4.94,1.41,4.94,3.43,0,1.67-.9,2.54-2.24,2.54a2.13,2.13,0,0,1-2.41-2.24,3.52,3.52,0,0,1,.14-1h.89a3,3,0,0,0,.19-1,1.17,1.17,0,0,0-1.3-1.3C245,290.24,244.33,291.81,244.33,295.83Z"/><path class="cls-2" d="M259.1,289.75c4.23,0,6,2.14,5.88,6.16h-7.61v1c0,3.19.57,5.35,3.18,5.35,2,0,3.35-1.27,3.94-3.35l.49.08c-.62,2.32-2,4.1-5.86,4.1-4.8,0-7-2.75-7-6.67C252.16,291.81,255.34,289.75,259.1,289.75Zm1.08,5.62v-1.32c0-2.84-.22-3.78-1.33-3.78-.94,0-1.45.91-1.45,3.78v1.32Z"/><path class="cls-2" d="M272.46,282.63v19.76H274v.48h-8v-.48h1.48V283.11h-1.59v-.48Z"/><path class="cls-2" d="M281.56,289.75c4.24,0,6.05,2.14,5.89,6.16h-7.62v1c0,3.19.57,5.35,3.19,5.35,2,0,3.34-1.27,3.94-3.35l.49.08c-.63,2.32-2,4.1-5.86,4.1-4.81,0-7-2.75-7-6.67C274.62,291.81,277.81,289.75,281.56,289.75Zm1.08,5.62v-1.32c0-2.84-.22-3.78-1.32-3.78-.95,0-1.46.91-1.46,3.78v1.32Z"/><path class="cls-2" d="M294.93,292.08a3.54,3.54,0,0,1,3.61-2.33c3.08,0,4.94,2.11,4.94,6.72s-1.89,6.67-5.56,6.67c-1.86,0-2.78-.51-3.16-1.86l-.19,1.59h-6.15v-.48h1.49V283.11h-1.49v-.48h6.51Zm0,2.48v5c0,1.46.62,2.78,1.75,2.78,1.32,0,1.59-1.59,1.59-5.35v-1.4c0-3.8-.32-4.7-1.24-4.7C295.92,290.91,294.93,292.21,294.93,294.56Z"/><path class="cls-2" d="M310.8,295.15v7.24h1.92v.48H304.3v-.48h1.48V290.51H304.3V290h6.5v2.59a3.63,3.63,0,0,1,3.62-2.86,2.62,2.62,0,0,1,2.86,2.89c0,1.54-.81,2.57-2.27,2.57-1.81,0-2.67-1.14-2.1-3h1c.54-1.11,0-1.38-.57-1.38C312,290.78,310.8,292.72,310.8,295.15Z"/><path class="cls-2" d="M324.52,296.53v-2.08c0-3.43-.3-4.32-1.38-4.32a1.14,1.14,0,0,0-1.27,1.08,2.52,2.52,0,0,0,.16.78h.68a3.3,3.3,0,0,1,.21,1.22,2.15,2.15,0,0,1-2.37,2.1,2,2,0,0,1-2.32-2.24c0-2.26,2-3.32,5.64-3.32,4.24,0,5.67,1.19,5.67,5.1v5.48c0,1.11.32,1.41.78,1.41s.95-.51,1.08-2.78l.41,0c-.14,3.23-1.14,4.15-3.46,4.15s-3.4-.67-3.73-2c-.43,1.3-1.21,2-3.1,2s-4-.56-4-3.26,2.34-3.35,6.2-3.35Zm0,2.94V297h-.19c-1.14,0-1.67.81-1.67,2.46v.43c0,1.94.18,2.21.7,2.21S324.52,301.2,324.52,299.47Z"/><path class="cls-2" d="M333,290.51h-1.48V290H333v-3.48l5-1.24V290h3.51v.49H338v9.1c0,1.59.25,2.45,1.19,2.45,1.3,0,2.11-1.19,2.35-3l.46,0c-.24,2.11-1.13,4.05-4.43,4.05-2.67,0-4.59-.78-4.59-4.13Z"/><path class="cls-2" d="M349.38,289.75c4.24,0,6.05,2.14,5.89,6.16h-7.61v1c0,3.19.56,5.35,3.18,5.35,2,0,3.35-1.27,3.94-3.35l.49.08c-.62,2.32-2,4.1-5.86,4.1-4.8,0-7-2.75-7-6.67C342.45,291.81,345.63,289.75,349.38,289.75Zm1.08,5.62v-1.32c0-2.84-.21-3.78-1.32-3.78-.94,0-1.46.91-1.46,3.78v1.32Z"/><path class="cls-2" d="M362.45,290.51H361V290h1.48v-3.48l5-1.24V290H371v.49h-3.51v9.1c0,1.59.25,2.45,1.19,2.45,1.3,0,2.11-1.19,2.35-3l.46,0c-.24,2.11-1.13,4.05-4.43,4.05-2.67,0-4.59-.78-4.59-4.13Z"/><path class="cls-2" d="M378.25,282.63v9.88a3.72,3.72,0,0,1,4-2.76c2.51,0,4.18,1.25,4.18,4.51v8.13H388v.48h-7.64v-.48h1.11v-8.78c0-2.29-.32-2.56-1-2.56-1.13,0-2.18,1.7-2.18,3.89v7.45h1.16v.48h-7.67v-.48h1.49V283.11h-1.49v-.48Z"/><path class="cls-2" d="M395.45,289.75c4.23,0,6,2.14,5.88,6.16h-7.61v1c0,3.19.56,5.35,3.18,5.35,2,0,3.35-1.27,3.94-3.35l.49.08c-.62,2.32-2,4.1-5.86,4.1-4.8,0-7-2.75-7-6.67C388.51,291.81,391.69,289.75,395.45,289.75Zm1.08,5.62v-1.32c0-2.84-.22-3.78-1.33-3.78-.94,0-1.46.91-1.46,3.78v1.32Z"/><path class="cls-2" d="M408.81,290v12.37h1.51v.48h-8v-.48h1.49V290.51H402.2V290Zm-2.43-6.88c1.67,0,2.67.84,2.67,2.48a2.38,2.38,0,0,1-2.72,2.54c-2.19,0-2.7-1.38-2.7-2.51C403.63,284.33,404.36,283.14,406.38,283.14Z"/><path class="cls-2" d="M417.37,295.15v7.24h1.91v.48h-8.42v-.48h1.49V290.51h-1.49V290h6.51v2.59a3.62,3.62,0,0,1,3.62-2.86,2.62,2.62,0,0,1,2.86,2.89c0,1.54-.81,2.57-2.27,2.57-1.81,0-2.67-1.14-2.11-3h1c.54-1.11,0-1.38-.57-1.38C418.58,290.78,417.37,292.72,417.37,295.15Z"/><path class="cls-2" d="M435.59,290v2.49a3.6,3.6,0,0,1,3.81-2.76,3.48,3.48,0,0,1,3.8,2.92,4,4,0,0,1,4-2.92c2.35,0,4,1.25,4,4.51v8.13h1.51v.48h-7.47v-.48h.94v-8.78c0-2.29-.3-2.56-.78-2.56-1,0-2,1.46-2,3.72v7.62h1v.48H437.4v-.48h1v-8.78c0-2.29-.3-2.56-.79-2.56-1,0-2,1.7-2,3.89v7.45h1v.48h-7.48v-.48h1.48V290.51h-1.48V290Z"/><path class="cls-2" d="M460.32,296.53v-2.08c0-3.43-.29-4.32-1.37-4.32a1.13,1.13,0,0,0-1.27,1.08,2.26,2.26,0,0,0,.16.78h.68a3.3,3.3,0,0,1,.21,1.22,2.15,2.15,0,0,1-2.37,2.1,2,2,0,0,1-2.33-2.24c0-2.26,2-3.32,5.65-3.32,4.23,0,5.66,1.19,5.66,5.1v5.48c0,1.11.33,1.41.79,1.41s.94-.51,1.08-2.78l.4,0c-.13,3.23-1.13,4.15-3.45,4.15s-3.4-.67-3.73-2c-.43,1.3-1.21,2-3.1,2s-4-.56-4-3.26,2.35-3.35,6.21-3.35Zm0,2.94V297h-.19c-1.13,0-1.67.81-1.67,2.46v.43c0,1.94.19,2.21.7,2.21S460.32,301.2,460.32,299.47Z"/><path class="cls-2" d="M474.39,295.15v7.24h1.92v.48h-8.42v-.48h1.48V290.51h-1.48V290h6.5v2.59a3.63,3.63,0,0,1,3.62-2.86,2.62,2.62,0,0,1,2.86,2.89c0,1.54-.81,2.57-2.27,2.57-1.81,0-2.67-1.14-2.1-3h1c.54-1.11,0-1.38-.57-1.38C475.61,290.78,474.39,292.72,474.39,295.15Z"/><path class="cls-2" d="M487.76,295.15v7.24h1.91v.48h-8.42v-.48h1.49V290.51h-1.49V290h6.51v2.59a3.61,3.61,0,0,1,3.61-2.86,2.62,2.62,0,0,1,2.87,2.89c0,1.54-.81,2.57-2.27,2.57-1.81,0-2.67-1.14-2.11-3h1c.54-1.11,0-1.38-.56-1.38C489,290.78,487.76,292.72,487.76,295.15Z"/><path class="cls-2" d="M501.12,290v12.37h1.51v.48h-8v-.48h1.48V290.51h-1.59V290Zm-2.43-6.88c1.68,0,2.68.84,2.68,2.48a2.39,2.39,0,0,1-2.73,2.54c-2.19,0-2.7-1.38-2.7-2.51C495.94,284.33,496.67,283.14,498.69,283.14Z"/><path class="cls-2" d="M510.44,296.53v-2.08c0-3.43-.3-4.32-1.38-4.32a1.13,1.13,0,0,0-1.27,1.08,2.52,2.52,0,0,0,.16.78h.68a3.3,3.3,0,0,1,.21,1.22,2.15,2.15,0,0,1-2.37,2.1,2,2,0,0,1-2.32-2.24c0-2.26,2-3.32,5.64-3.32,4.24,0,5.67,1.19,5.67,5.1v5.48c0,1.11.32,1.41.78,1.41s1-.51,1.08-2.78l.41,0c-.14,3.23-1.14,4.15-3.46,4.15s-3.4-.67-3.73-2c-.43,1.3-1.21,2-3.1,2s-4-.56-4-3.26,2.34-3.35,6.2-3.35Zm0,2.94V297h-.19c-1.14,0-1.68.81-1.68,2.46v.43c0,1.94.19,2.21.71,2.21S510.44,301.2,510.44,299.47Z"/><path class="cls-2" d="M529.44,288.16c.09-.43-.08-.84-.64-.84-.35,0-1.16.11-1.16,1.79a8.36,8.36,0,0,0,.18,1.62,3.89,3.89,0,0,1,2.06,3.42c0,3.08-2.22,4.62-5.51,4.62a12.35,12.35,0,0,1-2.19-.22c-.94.6-1.18.89-1.18,1.14s.29.37,1.72.37h2.76c3,0,6.12.73,6.12,4.4,0,3-2.16,5.16-7.61,5.16-4.7,0-6.67-1.13-6.67-2.89,0-1.35,1.14-1.89,2.08-2.16l1.62.73a5.53,5.53,0,0,0-.21,1.49c0,1.13.56,2.32,3.45,2.32s4.37-1.16,4.37-2.86c0-1.3-.59-1.81-3.42-1.81h-2.62c-3.21,0-4.08-1.32-4.08-2.51,0-1.54,1-2.3,3.08-3.57a3.81,3.81,0,0,1-3.13-4.1c0-2.54,1.75-4.51,5.83-4.51a5.55,5.55,0,0,1,3,.68,6.66,6.66,0,0,1-.16-1.32,2.59,2.59,0,0,1,2.65-2.87,2,2,0,0,1,2.18,2,1.62,1.62,0,0,1-1.7,1.78,1.45,1.45,0,0,1-1.56-1.4Zm-6.47,7c0,2.54.45,3.11,1.27,3.11s1.18-.43,1.18-3.24v-1.32c0-3-.43-3.43-1.16-3.43s-1.29.49-1.29,3.43Z"/><path class="cls-2" d="M538.22,289.75c4.24,0,6,2.14,5.88,6.16h-7.61v1c0,3.19.57,5.35,3.19,5.35,2,0,3.34-1.27,3.94-3.35l.48.08c-.62,2.32-2,4.1-5.85,4.1-4.81,0-7-2.75-7-6.67C531.28,291.81,534.47,289.75,538.22,289.75Zm1.08,5.62v-1.32c0-2.84-.22-3.78-1.32-3.78s-1.46.91-1.46,3.78v1.32Z"/><path class="cls-2" d="M549.83,299.07a1.85,1.85,0,0,1,2.08,2,1.9,1.9,0,0,1-2,2.08,1.87,1.87,0,0,1-2.07-2A1.92,1.92,0,0,1,549.83,299.07Zm-.22-3.32c0-4.24-1.75-7.18-1.75-9.88a2,2,0,0,1,2.19-2.19c1,0,2.05.43,2.05,2.19,0,2.88-1.89,5.61-1.89,9.9v2.3h-.6Z"/><path class="cls-3" d="M193.45,247.3l-.89-.45a21.68,21.68,0,0,1,1.41-2.2,39.53,39.53,0,0,0,3.72-6.34,36.65,36.65,0,0,1-4.35-13.07,62.11,62.11,0,0,1-.26-13.67l.08-1,.76.7a16.88,16.88,0,0,1,4.13,6,34.06,34.06,0,0,1,1.18,3.81l1.52,5.78a62.12,62.12,0,0,0-.55-16.52,6.64,6.64,0,0,1-2.5,0,5.91,5.91,0,0,1-4-2.13c-1.06-1.38-1.32-3.3-.81-5.86a21.77,21.77,0,0,1,3.33-7.93,2.7,2.7,0,0,1,1.57-1.27,2.06,2.06,0,0,1,.7,0,2.4,2.4,0,0,1,2-1.14h0a2.55,2.55,0,0,1,2,1.12l.24,0a1.57,1.57,0,0,1,1,.37,8.56,8.56,0,0,1,2.61,4.29c.8,2.39,1.74,5.94.73,9.24a4.28,4.28,0,0,1-1.91,2.84h0a6.84,6.84,0,0,1-4,.28,73.19,73.19,0,0,1,.89,10.1,21.92,21.92,0,0,1,2.46-3.91l.15-.2a67.22,67.22,0,0,1,5.38-6.54l.66-.71.2,1a26.18,26.18,0,0,1-2,15.4,20.74,20.74,0,0,1-3.39,5.7,11.72,11.72,0,0,1-5.31,3.57,36.72,36.72,0,0,1-5.42,10.71A21.14,21.14,0,0,0,193.45,247.3Zm.55-34.56a58.8,58.8,0,0,0,.33,12.36,36,36,0,0,0,3.86,12.06,36.85,36.85,0,0,0,2.15-7.47,11.83,11.83,0,0,0-.43-2.13l-1.65-6.22a32.24,32.24,0,0,0-1.14-3.7A15.79,15.79,0,0,0,194,212.74Zm7.33,17.11c-.22,1.24-.49,2.4-.78,3.48a11,11,0,0,0,4.22-3.05,19.91,19.91,0,0,0,3.22-5.43A25.78,25.78,0,0,0,210.11,211a66.61,66.61,0,0,0-4.62,5.71l-.15.2a22.27,22.27,0,0,0-3.29,5.78,47.89,47.89,0,0,1-.7,7s0,.07,0,.1Zm-.2-20.22.11.49Zm-3-15.47H198a1.83,1.83,0,0,0-.94.86,20.53,20.53,0,0,0-3.18,7.56c-.45,2.26-.25,3.91.62,5.06a5.07,5.07,0,0,0,3.37,1.74,7.4,7.4,0,0,0,1.41.08,9.58,9.58,0,0,1-1.18-.89,4,4,0,0,1-1.1-3.2c0-3.38,1.59-6.52,3.22-9.23a5,5,0,0,0-1-1.39A1.74,1.74,0,0,0,198.1,194.16Zm4.69,0h0c-.15,0-.35.33-.42.44-1.94,3-4.36,6.81-4.4,10.82a3.06,3.06,0,0,0,.77,2.44,5.38,5.38,0,0,0,2,1.2,6.39,6.39,0,0,0,4.06-.07h0c.56-.26,1-1,1.37-2.23.93-3,0-6.36-.72-8.62a7.75,7.75,0,0,0-2.26-3.81A.68.68,0,0,0,202.79,194.13Zm-3.41-.52a3.09,3.09,0,0,1,.53.45,5.89,5.89,0,0,1,.88,1.11c.24-.39.49-.77.73-1.14a2,2,0,0,1,.16-.24,1.57,1.57,0,0,0-1.19-.74h0A1.41,1.41,0,0,0,199.38,193.61Z"/><path class="cls-4" d="M463.16,169.7a18.24,18.24,0,0,1-10.7-13.28,18.28,18.28,0,0,1-10.71,13.28c-1.08.47-3.76,1.19-3.76,1.19s2.68.72,3.76,1.19a18.26,18.26,0,0,1,10.71,13.27,18.23,18.23,0,0,1,10.7-13.27c1.08-.47,3.76-1.19,3.76-1.19s-2.68-.72-3.76-1.19"/><path class="cls-5" d="M461.29,148.84a1.52,1.52,0,1,1-1.51-1.51,1.52,1.52,0,0,1,1.51,1.51"/><path class="cls-3" d="M147.17,189.89a1.52,1.52,0,1,1-1.52-1.52,1.52,1.52,0,0,1,1.52,1.52"/><path class="cls-3" d="M453.16,135.75c-3.21-.13-6.47-.13-6.5-.13h-4.17l1.19-1.19s1.49-1.5,2.89-3c2.91-3.15,2.66-3.4,2.53-3.54s-.39-.38-3.55,2.52c-1.52,1.4-3,2.88-3,2.9l-1.19,1.19v-4.17s0-3.29-.14-6.5c-.27-6.62-.79-6.62-1-6.62s-.78,0-1.05,6.62c-.13,3.21-.14,6.47-.14,6.5v4.17l-1.19-1.19s-1.49-1.5-3-2.9c-3.16-2.91-3.41-2.65-3.55-2.52s-.38.39,2.53,3.54c1.4,1.52,2.88,3,2.89,3l1.19,1.19h-4.17s-3.28,0-6.5.13c-6.62.27-6.62.8-6.62,1.06s0,.78,6.62,1.05c3.22.13,6.47.13,6.5.13h4.17l-1.19,1.2s-1.49,1.49-2.89,3c-2.91,3.16-2.66,3.41-2.53,3.54s.39.39,3.55-2.52c1.52-1.4,3-2.88,3-2.89l1.19-1.2v4.17s0,3.29.14,6.51c.27,6.61.8,6.61,1.05,6.61s.78,0,1-6.61c.14-3.22.14-6.47.14-6.51v-4.17l1.19,1.2s1.49,1.49,3,2.89c3.16,2.91,3.41,2.66,3.55,2.52s.38-.38-2.53-3.54c-1.4-1.52-2.87-3-2.89-3l-1.19-1.2h4.17s3.29,0,6.5-.13c6.62-.27,6.62-.8,6.62-1.05s0-.79-6.62-1.06"/><path class="cls-5" d="M187.45,248.31c-10.71-16.62-16.73-30.09-19.77-57.34a16.89,16.89,0,0,1-8.17-2.12c-2-1.15-6-5.48-7.19-13.61-.07-.49-.15-1-.22-1.46-.55-3.59-1-6.69,1.08-8.15a2.91,2.91,0,0,1,1.89-.48,7.29,7.29,0,0,1,2.43-3.57,12.27,12.27,0,0,1,3.92-2.07,10.73,10.73,0,0,1,7.54-.15,11.4,11.4,0,0,1,6-1.92c2.07,0,4,1.19,6.16,2.72a5.94,5.94,0,0,1,.7.17c3.54,1.06,3.32,5.79,3.24,7.57a38.86,38.86,0,0,1-1.44,8.83,20.63,20.63,0,0,1-1.67,4.33,26.94,26.94,0,0,1-2.62,3.84,17.6,17.6,0,0,1-2.77,2.93,13.84,13.84,0,0,1-7,2.89c-.33.05-.62.1-.88.16a176,176,0,0,0,3,18.65l.15-.1c5.28-11.65,11.43-23.65,23.1-31.59v0h0l.63-.42.54.84-.35.23a57.68,57.68,0,0,1-23.88,32.11c3.47,15,8.71,25.27,16.39,37.18Zm7-68.91c-10.29,7.43-16.1,18.24-21,28.92A56.58,56.58,0,0,0,194.44,179.4Zm-39.58-13.27a1.88,1.88,0,0,0-1.11.32c-1.59,1.11-1.16,3.92-.66,7.18.07.48.15,1,.22,1.47,1,7.19,4.56,11.64,6.7,12.88a15.85,15.85,0,0,0,7.4,2,21.14,21.14,0,0,1-2-16.41,11,11,0,0,0-4.55-4.55l-.9-.6C159,167.72,156.59,166.13,154.86,166.13ZM179.79,161c-4.77,0-9.53,5.37-10.66,7h0a20.12,20.12,0,0,0-.61,21.84c.26-.06.55-.11.86-.16a12.71,12.71,0,0,0,6.51-2.68,17.21,17.21,0,0,0,2.61-2.76,26.47,26.47,0,0,0,2.53-3.7,19.93,19.93,0,0,0,1.59-4.14,38.42,38.42,0,0,0,1.4-8.59c.11-2.46,0-5.82-2.53-6.57l-.45-.12-.1.12-.25-.18A5.46,5.46,0,0,0,179.79,161ZM161,167.9l.4.26a12.47,12.47,0,0,1,4.41,4.1,21.06,21.06,0,0,1,2.47-4.78h0s.32-.44.86-1.07a4.87,4.87,0,0,0-2.87-.84A7.58,7.58,0,0,0,163,166,3.47,3.47,0,0,0,161,167.9Zm-5-2.6a14.73,14.73,0,0,1,4.11,2,4.45,4.45,0,0,1,2.46-2.27,7.14,7.14,0,0,1,2.21-.48c0-1.28.77-2.58,2.28-3.86.25-.22.53-.44.82-.66a10.59,10.59,0,0,0-6.2.4,11.27,11.27,0,0,0-3.6,1.89A6.4,6.4,0,0,0,156.06,165.3Zm9.78-.74h.5a6,6,0,0,1,3.49,1.09c1.93-2.1,5.48-5.31,9.35-5.6a7.92,7.92,0,0,0-4.2-1.62h0a11.63,11.63,0,0,0-7.17,3A4.47,4.47,0,0,0,165.84,164.56Zm4.68,61.25A22.26,22.26,0,0,1,158,221.37h0a26.27,26.27,0,0,1-10.12-15.19,31.93,31.93,0,0,1-.49-10.71l0-.09,0,0,0-.19.1-.87.69.53c4.5,3.39,8.91,7,13.11,10.76,6,5.35,11.73,11.37,13.21,19.13l.08.44-.42.13A12.51,12.51,0,0,1,170.52,225.81Zm-11.93-5.25c4.73,3.41,10.33,4.92,14.53,4-2.12-2.08-4.34-4.11-6.49-6.07-2.47-2.26-5-4.59-7.44-7a58.43,58.43,0,0,1-10.94-14.25,29.9,29.9,0,0,0,.61,8.74,25.31,25.31,0,0,0,9.73,14.61Zm-9.45-23.79a57.81,57.81,0,0,0,10.76,14c2.39,2.39,4.94,4.72,7.4,7,1.94,1.77,3.93,3.59,5.86,5.46-1.89-6.67-7.08-12-12.49-16.86C157,203,153.1,199.81,149.14,196.77Z"/></g></g></svg>